# xmcd
#
# Track frame offsets:
#	150
#	38702
#	80561
#	124011
#	156257
#	181405
#	210440
#	224747
#	252779
#
# Disc length: 3665 seconds
#
# Revision: 0
# Processed by: cddbd v1.5.2PL0 Copyright (c) Steve Scherf et al.
# Submitted via: audiograbber 1.83.01
#
DISCID=7b0e4f09
DTITLE=Grateful Dead - 92-06-08 Richfield Coliseum, Richfield OH
DYEAR=1900
DGENRE=
TTITLE0=Feel Like A Stranger
TTITLE1=Loser
TTITLE2=Little Red Rooster
TTITLE3=So Many Roads
TTITLE4=Just Like Tom Thumb's Blues
TTITLE5=Black Throated Wind
TTITLE6=Don't Ease Me In
TTITLE7=China Cat Sunflower
TTITLE8=I Know You Rider
EXTD=
EXTT0=
EXTT1=
EXTT2=
EXTT3=
EXTT4=
EXTT5=
EXTT6=
EXTT7=
EXTT8=
PLAYORDER=
